<svg width="914" height="914" viewBox="0 0 914 914" fill="none" xmlns="http://www.w3.org/2000/svg">
<path d="M235.858 737.279L818.061 496.223C839.95 487.159 844.337 458.063 826.092 442.95L510.321 181.377C486.89 161.967 452.299 183.831 459.777 213.324L509.667 410.082C512.667 421.912 508.551 434.409 499.109 442.142L203.903 683.893C175.907 706.82 202.425 751.122 235.858 737.279Z" fill="white"/>
<path d="M123.847 222.146L391.165 376.834C410.156 387.823 412.339 414.391 395.398 428.334L169.813 613.996C142.908 636.14 105.311 604.592 122.446 574.251L178.837 474.398C184.192 464.915 184.26 453.338 179.018 443.793L80.5338 264.506C65.2056 236.602 96.2911 206.201 123.847 222.146Z" fill="white"/>
</svg>
