<svg width="141" height="135" viewBox="0 0 141 135" fill="none" xmlns="http://www.w3.org/2000/svg">
<path fill-rule="evenodd" clip-rule="evenodd" d="M25.3073 131.953L61.1831 106.233C66.7527 102.241 74.2473 102.241 79.8169 106.233L115.693 131.953C126.273 139.539 141 131.977 141 118.958V15.9904C141 7.15918 133.841 0 125.01 0H15.9904C7.15916 0 0 7.15916 0 15.9904V118.958C0 131.977 14.7266 139.539 25.3073 131.953ZM45.4633 93.5152C41.5292 98.2036 34.4152 98.8707 30.7056 94.0027C26.7379 88.796 23.8082 82.8318 22.1211 76.4325C19.486 66.4379 20.0111 55.8724 23.6242 46.1883C27.2373 36.5041 33.761 28.1767 42.2988 22.3506C50.8365 16.5244 60.9691 13.4856 71.304 13.6516C81.6388 13.8177 91.6686 17.1806 100.015 23.278C108.361 29.3754 114.614 37.9082 117.914 47.7034C121.214 57.4986 121.399 68.0755 118.444 77.9803C116.553 84.3221 113.433 90.189 109.3 95.2656C105.436 100.012 98.3468 99.1166 94.5653 94.3042C90.7839 89.4917 91.8883 82.5627 94.8609 77.2127C95.8368 75.4564 96.625 73.5905 97.2056 71.6443C98.8514 66.1272 98.7482 60.2358 96.91 54.7797C95.0718 49.3237 91.5889 44.5709 86.9401 41.1745C82.2912 37.7782 76.7045 35.9051 70.9479 35.8126C65.1913 35.7201 59.5473 37.4128 54.7917 40.658C50.0361 43.9032 46.4023 48.5416 44.3898 53.9358C42.3772 59.33 42.0847 65.215 43.5525 70.7822C44.0703 72.746 44.7981 74.6363 45.717 76.423C48.5162 81.8658 49.3974 88.8267 45.4633 93.5152ZM86.4196 63.6775C86.4196 72.4696 79.2922 79.5969 70.5002 79.5969C61.7082 79.5969 54.5808 72.4696 54.5808 63.6775C54.5808 54.8855 61.7082 47.7582 70.5002 47.7582C79.2922 47.7582 86.4196 54.8855 86.4196 63.6775Z" fill="white"/>
</svg>
