<svg xmlns="http://www.w3.org/2000/svg" width="28" height="31" fill="none"><g transform="translate(-0.03 0.11)"><path d="M 0 30.89 L 0 0 L 28.018 0 L 28.018 30.89 Z" fill="transparent"></path><path d="M 10.118 1.664 C 12.276 -0.258 14.342 -0.504 16.752 0.873 C 19.673 2.543 22.582 4.233 25.502 5.909 C 27.152 6.856 27.98 8.262 27.975 10.171 C 27.968 13.367 27.865 16.567 28.009 19.757 C 28.143 22.736 26.85 24.6 24.044 25.669 C 24.024 25.34 23.99 25.027 23.99 24.714 C 23.986 20.465 23.962 16.215 24 11.965 C 24.014 10.362 23.344 9.267 21.969 8.486 C 18.013 6.234 14.076 3.946 10.119 1.665 Z" fill="rgb(255, 255, 255)"></path><path d="M 21.561 19.004 C 21.561 20.976 21.559 22.949 21.561 24.921 C 21.564 26.447 20.927 27.596 19.585 28.353 C 18.46 28.988 17.361 29.672 16.223 30.283 C 14.74 31.078 13.217 31.113 11.741 30.274 C 8.549 28.46 5.358 26.64 2.196 24.771 C 0.823 23.958 0.035 22.687 0.021 21.068 C -0.011 17.328 0 13.586 0.018 9.845 C 0.025 8.173 0.839 6.922 2.231 6.06 C 3.358 5.363 4.527 4.732 5.681 4.079 C 6.974 3.348 8.25 3.361 9.546 4.118 C 13.069 6.176 16.596 8.228 20.142 10.246 C 21.205 10.85 21.538 11.773 21.548 12.882 C 21.565 14.922 21.553 16.963 21.553 19.004 C 21.555 19.004 21.559 19.004 21.561 19.004 Z M 17.533 19.22 C 17.546 19.22 17.559 19.22 17.572 19.22 C 17.572 17.655 17.552 16.089 17.581 14.526 C 17.595 13.73 17.318 13.19 16.601 12.788 C 13.754 11.191 10.929 9.552 8.092 7.937 C 7.895 7.824 7.65 7.688 7.445 7.712 C 5.814 7.901 4.004 9.964 3.992 11.653 C 3.973 14.136 3.994 16.62 3.981 19.103 C 3.973 20.491 4.567 21.525 5.754 22.214 C 7.96 23.495 10.169 24.772 12.389 26.028 C 13.446 26.626 14.532 26.615 15.601 26.024 C 16.046 25.777 16.537 25.575 16.912 25.244 C 17.198 24.992 17.496 24.575 17.508 24.221 C 17.57 22.556 17.536 20.889 17.536 19.221 Z" fill="rgb(255, 255, 255)"></path></g></svg>