<svg width="128" height="140" viewBox="0 0 128 140" fill="none" xmlns="http://www.w3.org/2000/svg">
<path d="M51.0225 3.43555C58.956 -1.14493 68.7305 -1.14492 76.6641 3.43555L114.866 25.4922C122.799 30.0727 127.686 38.5375 127.687 47.6982V91.8105C127.687 100.972 122.8 109.437 114.866 114.018L76.6641 136.074C68.7306 140.655 58.9559 140.655 51.0225 136.074L12.8203 114.018C4.88693 109.437 1.88697e-06 100.971 0 91.8105L0 47.6982C0.00011369 38.5375 4.88711 30.0727 12.8203 25.4922L51.0225 3.43555ZM63.7236 26.4346C40.3019 26.435 21.317 45.4218 21.3164 68.8389C21.3165 87.5304 33.4232 103.441 50.2734 109.07C54.553 110.5 58.3256 113.435 60.7451 117.514L60.8594 117.709L63.7227 122.668L66.5859 117.71L66.6992 117.515C69.1188 113.435 72.8919 110.501 77.1719 109.071L77.5654 108.938C94.2117 103.194 106.132 87.3856 106.132 68.8389C106.131 45.6045 87.4417 26.7322 64.2725 26.4385L63.7236 26.4346ZM63.9795 46.8643C75.9734 47.0163 85.6481 56.7859 85.6484 68.8135C85.6483 78.4143 79.4783 86.5982 70.8613 89.5713L70.6572 89.6406C68.4418 90.3807 66.4888 91.9 65.2363 94.0117L65.1768 94.1123L63.6953 96.6787L62.2129 94.1123L62.1533 94.0107C60.9009 91.8995 58.9484 90.3807 56.7334 89.6406C48.0108 86.7265 41.7424 78.4892 41.7422 68.8135C41.7426 56.6916 51.5711 46.8629 63.6953 46.8623L63.9795 46.8643Z" fill="white"/>
</svg>
