<svg width="467" height="470" viewBox="0 0 467 470" fill="none" xmlns="http://www.w3.org/2000/svg">
<path fill-rule="evenodd" clip-rule="evenodd" d="M0 235V470H233.5H467V235V0H233.5H0V235ZM311.193 233.5C342.383 305 368.135 364.063 368.42 364.75C368.825 365.73 363.809 365.995 345.219 365.979L321.5 365.958L277.591 262.229C253.441 205.178 233.381 158.15 233.013 157.722C232.646 157.295 212.395 203.982 188.012 261.472L143.678 366H120.89H98.102L99.461 362.75C102.944 354.42 211.294 106.319 212.135 104.747C213.014 103.105 214.776 102.982 233.788 103.23L254.484 103.5L311.193 233.5Z" fill="white"/>
</svg>
