<svg width="512" height="512" viewBox="0 0 512 512" fill="none" xmlns="http://www.w3.org/2000/svg">
<path d="M436.694 42.667H75.3073C71.2449 42.6106 67.2113 43.355 63.4367 44.8576C59.662 46.3603 56.2204 48.5918 53.3083 51.4246C50.3962 54.2575 48.0706 57.6363 46.4644 61.368C44.8583 65.0998 44.0029 69.1114 43.9473 73.1737V438.827C44.0029 442.889 44.8583 446.901 46.4644 450.633C48.0706 454.364 50.3962 457.743 53.3083 460.576C56.2204 463.409 59.662 465.641 63.4367 467.143C67.2113 468.646 71.2449 469.39 75.3073 469.334H436.694C440.756 469.39 444.79 468.646 448.565 467.143C452.339 465.641 455.781 463.409 458.693 460.576C461.605 457.743 463.931 454.364 465.537 450.633C467.143 446.901 467.998 442.889 468.054 438.827V73.1737C467.998 69.1114 467.143 65.0998 465.537 61.368C463.931 57.6363 461.605 54.2575 458.693 51.4246C455.781 48.5918 452.339 46.3603 448.565 44.8576C444.79 43.355 440.756 42.6106 436.694 42.667ZM172.587 399.787H108.587V207.787H172.587V399.787ZM140.587 180.907C131.761 180.907 123.296 177.401 117.055 171.16C110.814 164.918 107.307 156.453 107.307 147.627C107.307 138.801 110.814 130.336 117.055 124.095C123.296 117.853 131.761 114.347 140.587 114.347C145.274 113.816 150.02 114.28 154.515 115.71C159.01 117.14 163.152 119.503 166.671 122.645C170.189 125.787 173.004 129.636 174.931 133.941C176.859 138.246 177.855 142.91 177.855 147.627C177.855 152.344 176.859 157.008 174.931 161.313C173.004 165.618 170.189 169.467 166.671 172.609C163.152 175.751 159.01 178.114 154.515 179.544C150.02 180.974 145.274 181.439 140.587 180.907ZM403.414 399.787H339.414V296.747C339.414 270.934 330.241 254.08 306.987 254.08C299.791 254.133 292.783 256.39 286.909 260.548C281.035 264.706 276.576 270.564 274.134 277.334C272.465 282.348 271.741 287.629 272.001 292.907V399.574H208.001C208.001 399.574 208.001 225.067 208.001 207.574H272.001V234.667C277.815 224.579 286.271 216.267 296.458 210.629C306.645 204.99 318.178 202.237 329.814 202.667C372.481 202.667 403.414 230.187 403.414 289.28V399.787Z" fill="white"/>
</svg>
