<svg width="115" height="115" viewBox="0 0 115 115" fill="none" xmlns="http://www.w3.org/2000/svg">
<path d="M97.0312 10.7812H17.9688C16.0625 10.7813 14.2343 11.5385 12.8864 12.8864C11.5385 14.2343 10.7813 16.0625 10.7812 17.9688V97.0312C10.7813 98.9375 11.5385 100.766 12.8864 102.114C14.2343 103.461 16.0625 104.219 17.9688 104.219H97.0312C98.9375 104.219 100.766 103.461 102.114 102.114C103.461 100.766 104.219 98.9375 104.219 97.0312V17.9688C104.219 16.0625 103.461 14.2343 102.114 12.8864C100.766 11.5385 98.9375 10.7813 97.0312 10.7812ZM43.125 79.0625C43.125 80.0156 42.7464 80.9297 42.0724 81.6037C41.3985 82.2776 40.4844 82.6562 39.5312 82.6562C38.5781 82.6562 37.664 82.2776 36.9901 81.6037C36.3161 80.9297 35.9375 80.0156 35.9375 79.0625V50.3125C35.9375 49.3594 36.3161 48.4453 36.9901 47.7713C37.664 47.0974 38.5781 46.7188 39.5312 46.7188C40.4844 46.7188 41.3985 47.0974 42.0724 47.7713C42.7464 48.4453 43.125 49.3594 43.125 50.3125V79.0625ZM39.5312 43.125C38.4651 43.125 37.4229 42.8088 36.5364 42.2165C35.6499 41.6242 34.959 40.7823 34.551 39.7973C34.143 38.8123 34.0362 37.7284 34.2442 36.6827C34.4522 35.637 34.9656 34.6765 35.7195 33.9226C36.4734 33.1687 37.4339 32.6553 38.4796 32.4473C39.5253 32.2393 40.6091 32.3461 41.5942 32.7541C42.5792 33.1621 43.4211 33.853 44.0134 34.7395C44.6057 35.626 44.9219 36.6682 44.9219 37.7344C44.9219 39.1641 44.3539 40.5352 43.343 41.5461C42.3321 42.5571 40.9609 43.125 39.5312 43.125ZM82.6562 79.0625C82.6562 80.0156 82.2776 80.9297 81.6037 81.6037C80.9297 82.2776 80.0156 82.6562 79.0625 82.6562C78.1094 82.6562 77.1953 82.2776 76.5213 81.6037C75.8474 80.9297 75.4688 80.0156 75.4688 79.0625V62.8906C75.4688 60.5078 74.5222 58.2226 72.8373 56.5377C71.1524 54.8528 68.8672 53.9062 66.4844 53.9062C64.1016 53.9062 61.8164 54.8528 60.1315 56.5377C58.4466 58.2226 57.5 60.5078 57.5 62.8906V79.0625C57.5 80.0156 57.1214 80.9297 56.4474 81.6037C55.7735 82.2776 54.8594 82.6562 53.9062 82.6562C52.9531 82.6562 52.039 82.2776 51.3651 81.6037C50.6911 80.9297 50.3125 80.0156 50.3125 79.0625V50.3125C50.317 49.4322 50.6443 48.5842 51.2326 47.9293C51.8208 47.2744 52.6289 46.8582 53.5036 46.7596C54.3784 46.661 55.2589 46.8868 55.9781 47.3944C56.6974 47.9019 57.2053 48.6557 57.4057 49.5129C59.8368 47.8637 62.6712 46.9079 65.6046 46.748C68.5379 46.5882 71.4594 47.2304 74.0553 48.6057C76.6512 49.981 78.8235 52.0375 80.3388 54.5542C81.8541 57.0709 82.6553 59.9529 82.6562 62.8906V79.0625Z" fill="white"/>
</svg>
