<svg width="304" height="304" viewBox="0 0 304 304" fill="none" xmlns="http://www.w3.org/2000/svg">
<path d="M241.739 60.564C223.732 42.8486 200.889 30.8513 176.083 26.0799C151.277 21.3086 125.614 23.9761 102.319 33.7472C79.0244 43.5183 59.1378 59.9571 45.1584 80.9973C31.1791 102.038 23.731 126.741 23.75 152.002C23.75 205.107 56.525 249.673 109.25 268.305C115.698 270.585 122.599 271.284 129.373 270.345C136.147 269.405 142.597 266.854 148.181 262.906C153.765 258.957 158.321 253.727 161.465 247.653C164.609 241.58 166.25 234.841 166.25 228.002C166.25 224.222 167.751 220.598 170.424 217.925C173.096 215.253 176.721 213.752 180.5 213.752H235.374C245.073 213.797 254.496 210.524 262.078 204.476C269.66 198.427 274.945 189.968 277.056 180.502C279.258 170.798 280.33 160.871 280.25 150.921C280.133 134.06 276.668 117.391 270.057 101.88C263.447 86.3689 253.821 72.3253 241.739 60.564ZM249.268 174.172C248.561 177.322 246.797 180.136 244.269 182.145C241.742 184.154 238.603 185.237 235.374 185.216H180.5C169.162 185.216 158.288 189.72 150.271 197.737C142.254 205.754 137.75 216.628 137.75 227.966C137.747 230.244 137.199 232.489 136.149 234.511C135.1 236.534 133.582 238.275 131.721 239.589C129.86 240.904 127.711 241.753 125.454 242.065C123.197 242.377 120.898 242.144 118.75 241.385C98.9782 234.402 82.3532 222.67 70.68 207.47C58.5538 191.537 52.0703 172.023 52.25 152.002C52.2486 125.724 62.616 100.508 81.0999 81.8304C99.5838 63.1531 124.691 52.5237 150.967 52.2515H152C178.277 52.3585 203.459 62.7869 222.119 81.2886C240.778 99.7903 251.42 124.883 251.75 151.158C251.815 158.915 250.982 166.654 249.268 174.22V174.172ZM171 90.2515C171 94.0094 169.886 97.6828 167.798 100.807C165.71 103.932 162.743 106.367 159.271 107.805C155.799 109.243 151.979 109.62 148.293 108.886C144.608 108.153 141.222 106.344 138.565 103.687C135.908 101.029 134.098 97.6439 133.365 93.9582C132.632 90.2726 133.008 86.4523 134.446 82.9805C135.884 79.5087 138.32 76.5414 141.444 74.4536C144.569 72.3659 148.242 71.2515 152 71.2515C157.039 71.2515 161.872 73.2533 165.435 76.8165C168.998 80.3797 171 85.2124 171 90.2515ZM118.75 118.752C118.75 122.509 117.636 126.183 115.548 129.307C113.46 132.432 110.493 134.867 107.021 136.305C103.549 137.743 99.729 138.12 96.0433 137.386C92.3577 136.653 88.9722 134.844 86.315 132.187C83.6578 129.529 81.8482 126.144 81.1151 122.458C80.382 118.773 80.7583 114.952 82.1963 111.481C83.6344 108.009 86.0697 105.041 89.1942 102.954C92.3187 100.866 95.9922 99.7515 99.75 99.7515C104.789 99.7515 109.622 101.753 113.185 105.316C116.748 108.88 118.75 113.712 118.75 118.752ZM118.75 185.252C118.75 189.009 117.636 192.683 115.548 195.807C113.46 198.932 110.493 201.367 107.021 202.805C103.549 204.243 99.729 204.62 96.0433 203.886C92.3577 203.153 88.9722 201.344 86.315 198.687C83.6578 196.029 81.8482 192.644 81.1151 188.958C80.382 185.273 80.7583 181.452 82.1963 177.981C83.6344 174.509 86.0697 171.541 89.1942 169.454C92.3187 167.366 95.9922 166.252 99.75 166.252C104.789 166.252 109.622 168.253 113.185 171.816C116.748 175.38 118.75 180.212 118.75 185.252ZM223.25 118.752C223.25 122.509 222.136 126.183 220.048 129.307C217.96 132.432 214.993 134.867 211.521 136.305C208.049 137.743 204.229 138.12 200.543 137.386C196.858 136.653 193.472 134.844 190.815 132.187C188.158 129.529 186.348 126.144 185.615 122.458C184.882 118.773 185.258 114.952 186.696 111.481C188.134 108.009 190.57 105.041 193.694 102.954C196.819 100.866 200.492 99.7515 204.25 99.7515C209.289 99.7515 214.122 101.753 217.685 105.316C221.248 108.88 223.25 113.712 223.25 118.752Z" fill="white"/>
</svg>
